<svg xmlns="http://www.w3.org/2000/svg" xmlns:xlink="http://www.w3.org/1999/xlink" version="1.1" class="marks" width="375" height="255" viewBox="0 0 375 255"><rect width="375" height="255" fill="#FFFFFF"/><g fill="none" stroke-miterlimit="10" transform="translate(50,23)"><g class="mark-group role-frame root" role="graphics-object" aria-roledescription="group mark container"><g transform="translate(0,0)"><path class="background" aria-hidden="true" d="M10,0L310,0C315.51915024494,0,320,4.48084975506,320,10L320,190C320,195.51915024494,315.51915024494,200,310,200L10,200C4.48084975506,200,0,195.51915024494,0,190L0,10C0,4.48084975506,4.48084975506,0,10,0Z"/><g><g class="mark-group role-axis" role="graphics-symbol" aria-roledescription="axis" aria-label="X-axis titled 'Score' for a linear scale with values from 0 to 100"><g transform="translate(0.5,200.5)"><path class="background" aria-hidden="true" d="M0,0h0v0h0Z" pointer-events="none"/><g><g class="mark-text role-axis-label" pointer-events="none"><text text-anchor="start" transform="translate(0,10)" font-family="Roboto Mono" font-size="10px" fill="#1D1D1F" opacity="1">0</text><text text-anchor="middle" transform="translate(32,10)" font-family="Roboto Mono" font-size="10px" fill="#1D1D1F" opacity="1">10</text><text text-anchor="middle" transform="translate(64,10)" font-family="Roboto Mono" font-size="10px" fill="#1D1D1F" opacity="1">20</text><text text-anchor="middle" transform="translate(96,10)" font-family="Roboto Mono" font-size="10px" fill="#1D1D1F" opacity="1">30</text><text text-anchor="middle" transform="translate(128,10)" font-family="Roboto Mono" font-size="10px" fill="#1D1D1F" opacity="1">40</text><text text-anchor="middle" transform="translate(160,10)" font-family="Roboto Mono" font-size="10px" fill="#1D1D1F" opacity="1">50</text><text text-anchor="middle" transform="translate(192,10)" font-family="Roboto Mono" font-size="10px" fill="#1D1D1F" opacity="1">60</text><text text-anchor="middle" transform="translate(224,10)" font-family="Roboto Mono" font-size="10px" fill="#1D1D1F" opacity="1">70</text><text text-anchor="middle" transform="translate(256,10)" font-family="Roboto Mono" font-size="10px" fill="#1D1D1F" opacity="1">80</text><text text-anchor="middle" transform="translate(288,10)" font-family="Roboto Mono" font-size="10px" fill="#1D1D1F" opacity="1">90</text><text text-anchor="end" transform="translate(320,10)" font-family="Roboto Mono" font-size="10px" fill="#1D1D1F" opacity="1">100</text></g><g class="mark-rule role-axis-domain" pointer-events="none"><line transform="translate(0,0)" x2="320" y2="0" stroke="#1D1D1F" stroke-width="1" opacity="1"/></g><g class="mark-text role-axis-title" pointer-events="none"><text text-anchor="middle" transform="translate(160,25)" font-family="Roboto" font-size="11px" font-weight="bold" fill="#1D1D1F" opacity="1">Score</text></g></g><path class="foreground" aria-hidden="true" d="" pointer-events="none" display="none"/></g></g><g class="mark-group role-axis" role="graphics-symbol" aria-roledescription="axis" aria-label="Y-axis for a discrete scale with 5 values: delta, epsilon, beta, gamma, alpha"><g transform="translate(0.5,0.5)"><path class="background" aria-hidden="true" d="M0,0h0v0h0Z" pointer-events="none"/><g><g class="mark-text role-axis-label" pointer-events="none"><text text-anchor="end" transform="translate(-2,22.5)" font-family="Roboto Mono" font-size="10px" fill="#1D1D1F" opacity="1">delta</text><text text-anchor="end" transform="translate(-2,62.5)" font-family="Roboto Mono" font-size="10px" fill="#1D1D1F" opacity="1">epsilon</text><text text-anchor="end" transform="translate(-2,102.5)" font-family="Roboto Mono" font-size="10px" fill="#1D1D1F" opacity="1">beta</text><text text-anchor="end" transform="translate(-2,142.5)" font-family="Roboto Mono" font-size="10px" fill="#1D1D1F" opacity="1">gamma</text><text text-anchor="end" transform="translate(-2,182.5)" font-family="Roboto Mono" font-size="10px" fill="#1D1D1F" opacity="1">alpha</text></g><g class="mark-rule role-axis-domain" pointer-events="none"><line transform="translate(0,0)" x2="0" y2="200" stroke="#1D1D1F" stroke-width="1" opacity="1"/></g></g><path class="foreground" aria-hidden="true" d="" pointer-events="none" display="none"/></g></g><g class="mark-rule role-mark layer_0_marks" role="graphics-object" aria-roledescription="rule mark container"><line aria-label="v: 28; c: alpha" role="graphics-symbol" aria-roledescription="rule mark" transform="translate(89.60000000000001,180)" x2="-89.60000000000001" y2="0" stroke="#C7C7CC" stroke-width="2"/><line aria-label="v: 55; c: beta" role="graphics-symbol" aria-roledescription="rule mark" transform="translate(176,100)" x2="-176" y2="0" stroke="#C7C7CC" stroke-width="2"/><line aria-label="v: 43; c: gamma" role="graphics-symbol" aria-roledescription="rule mark" transform="translate(137.6,140)" x2="-137.6" y2="0" stroke="#C7C7CC" stroke-width="2"/><line aria-label="v: 91; c: delta" role="graphics-symbol" aria-roledescription="rule mark" transform="translate(291.2,20)" x2="-291.2" y2="0" stroke="#C7C7CC" stroke-width="2"/><line aria-label="v: 62; c: epsilon" role="graphics-symbol" aria-roledescription="rule mark" transform="translate(198.4,60)" x2="-198.4" y2="0" stroke="#C7C7CC" stroke-width="2"/></g><g class="mark-symbol role-mark layer_1_marks" role="graphics-object" aria-roledescription="symbol mark container"><path aria-label="v: 28; c: alpha" role="graphics-symbol" aria-roledescription="point" transform="translate(89.60000000000001,180)" d="M5.477,0A5.477,5.477,0,1,1,-5.477,0A5.477,5.477,0,1,1,5.477,0" fill="#007AFF" stroke-width="2" opacity="0.7"/><path aria-label="v: 55; c: beta" role="graphics-symbol" aria-roledescription="point" transform="translate(176,100)" d="M5.477,0A5.477,5.477,0,1,1,-5.477,0A5.477,5.477,0,1,1,5.477,0" fill="#007AFF" stroke-width="2" opacity="0.7"/><path aria-label="v: 43; c: gamma" role="graphics-symbol" aria-roledescription="point" transform="translate(137.6,140)" d="M5.477,0A5.477,5.477,0,1,1,-5.477,0A5.477,5.477,0,1,1,5.477,0" fill="#007AFF" stroke-width="2" opacity="0.7"/><path aria-label="v: 91; c: delta" role="graphics-symbol" aria-roledescription="point" transform="translate(291.2,20)" d="M5.477,0A5.477,5.477,0,1,1,-5.477,0A5.477,5.477,0,1,1,5.477,0" fill="#007AFF" stroke-width="2" opacity="0.7"/><path aria-label="v: 62; c: epsilon" role="graphics-symbol" aria-roledescription="point" transform="translate(198.4,60)" d="M5.477,0A5.477,5.477,0,1,1,-5.477,0A5.477,5.477,0,1,1,5.477,0" fill="#007AFF" stroke-width="2" opacity="0.7"/></g><g class="mark-group role-title"><g transform="translate(-44.0068359375,-18)"><path class="background" aria-hidden="true" d="M0,0h0v0h0Z" pointer-events="none"/><g><g class="mark-text role-title-text" role="graphics-symbol" aria-roledescription="title" aria-label="Title text 'Score by group'" pointer-events="none"><text text-anchor="start" transform="translate(0,11)" font-family="Roboto" font-size="14px" font-weight="bold" fill="#1D1D1F" opacity="1">Score by group</text></g></g><path class="foreground" aria-hidden="true" d="" pointer-events="none" display="none"/></g></g></g><path class="foreground" aria-hidden="true" d="" display="none"/></g></g></g></svg>