<svg class="panel-svg" role="img" aria-label="Taille automatique du portefeuille, nombre de titres Kt" xmlns="http://www.w3.org/2000/svg" viewBox="0 0 640 380" preserveAspectRatio="xMidYMid meet" font-family="Roboto, system-ui, sans-serif"><title>Taille automatique du portefeuille, nombre de titres Kt</title><style>.tip{opacity:0;pointer-events:none;transition:opacity .12s ease}.hit:hover~.tip,.hit:focus~.tip{opacity:1}.hit{outline:none;cursor:crosshair}.hit:focus-visible{outline:2px solid #007AFF;outline-offset:1px}@media (prefers-reduced-motion:reduce){.tip{transition:none}}.hit{cursor:crosshair}.dot:hover{r:7}.bar:hover{fill-opacity:1}.cell:hover{stroke:#28313A;stroke-width:2}.ridge:hover{fill-opacity:.42}</style><rect x="0" y="0" width="640" height="380" fill="#FFFFFF"/><line x1="106.5" y1="26" x2="106.5" y2="328" stroke="#E9EDF1" stroke-width="1" stroke-opacity=".6"/><line x1="161.9" y1="26" x2="161.9" y2="328" stroke="#E9EDF1" stroke-width="1" stroke-opacity=".6"/><line x1="218.1" y1="26" x2="218.1" y2="328" stroke="#E9EDF1" stroke-width="1" stroke-opacity=".6"/><line x1="328.8" y1="26" x2="328.8" y2="328" stroke="#E9EDF1" stroke-width="1" stroke-opacity=".6"/><line x1="384.1" y1="26" x2="384.1" y2="328" stroke="#E9EDF1" stroke-width="1" stroke-opacity=".6"/><line x1="440.3" y1="26" x2="440.3" y2="328" stroke="#E9EDF1" stroke-width="1" stroke-opacity=".6"/><line x1="551" y1="26" x2="551" y2="328" stroke="#E9EDF1" stroke-width="1" stroke-opacity=".6"/><line x1="606.4" y1="26" x2="606.4" y2="328" stroke="#E9EDF1" stroke-width="1" stroke-opacity=".6"/><line x1="52" y1="26" x2="52" y2="328" stroke="#E9EDF1" stroke-width="1.4"/><line x1="274.3" y1="26" x2="274.3" y2="328" stroke="#E9EDF1" stroke-width="1.4"/><line x1="496.5" y1="26" x2="496.5" y2="328" stroke="#E9EDF1" stroke-width="1.4"/><line x1="52" y1="328" x2="620" y2="328" stroke="#E9EDF1" stroke-width="1.2"/><line x1="52" y1="252.5" x2="620" y2="252.5" stroke="#E9EDF1" stroke-width="1.2"/><line x1="52" y1="177" x2="620" y2="177" stroke="#E9EDF1" stroke-width="1.2"/><line x1="52" y1="101.5" x2="620" y2="101.5" stroke="#E9EDF1" stroke-width="1.2"/><line x1="52" y1="26" x2="620" y2="26" stroke="#E9EDF1" stroke-width="1.2"/><text x="42" y="332" text-anchor="end" font-size="15" font-family="Roboto Mono, ui-monospace, monospace" fill="#5B6B78">0</text><text x="42" y="256.5" text-anchor="end" font-size="15" font-family="Roboto Mono, ui-monospace, monospace" fill="#5B6B78">5</text><text x="42" y="181" text-anchor="end" font-size="15" font-family="Roboto Mono, ui-monospace, monospace" fill="#5B6B78">10</text><text x="42" y="105.5" text-anchor="end" font-size="15" font-family="Roboto Mono, ui-monospace, monospace" fill="#5B6B78">15</text><text x="42" y="30" text-anchor="end" font-size="15" font-family="Roboto Mono, ui-monospace, monospace" fill="#5B6B78">20</text><text x="52" y="18" text-anchor="start" font-size="15" font-weight="700" fill="#5B6B78">titres</text><path d="M52,328 L52,328 L154.2,328 L154.2,207.2 L196.8,207.2 L196.8,161.9 L218.1,161.9 L218.1,146.8 L239.3,146.8 L239.3,161.9 L260.6,161.9 L260.6,192.1 L303.2,192.1 L303.2,161.9 L324.5,161.9 L324.5,131.7 L345.8,131.7 L345.8,101.5 L367.1,101.5 L367.1,86.4 L388.4,86.4 L388.4,101.5 L409.7,101.5 L409.7,161.9 L431,161.9 L431,192.1 L473.5,192.1 L473.5,237.4 L494.8,237.4 L494.8,207.2 L516.1,207.2 L516.1,192.1 L558.7,192.1 L558.7,237.4 L580,237.4 L580,192.1 L620,192.1 L620,328 Z" fill="#AF52DE" fill-opacity=".12"/><path d="M52,328 L154.2,328 L154.2,207.2 L196.8,207.2 L196.8,161.9 L218.1,161.9 L218.1,146.8 L239.3,146.8 L239.3,161.9 L260.6,161.9 L260.6,192.1 L303.2,192.1 L303.2,161.9 L324.5,161.9 L324.5,131.7 L345.8,131.7 L345.8,101.5 L367.1,101.5 L367.1,86.4 L388.4,86.4 L388.4,101.5 L409.7,101.5 L409.7,161.9 L431,161.9 L431,192.1 L473.5,192.1 L473.5,237.4 L494.8,237.4 L494.8,207.2 L516.1,207.2 L516.1,192.1 L558.7,192.1 L558.7,237.4 L580,237.4 L580,192.1 L620,192.1" fill="none" stroke="#AF52DE" stroke-width="2.6" stroke-linejoin="round"/><line x1="52" y1="174.9" x2="620" y2="174.9" stroke="#B26200" stroke-width="1.6" stroke-dasharray="5 5"/><text x="58" y="166.9" font-size="15" font-weight="700" fill="#B26200">moyenne 10 titres</text><rect class="hit" x="45.2" y="26" width="13.6" height="302" fill="transparent" data-tip="janv. 2024|Hors marché (période de chauffe)"/><rect class="hit" x="58.8" y="26" width="13.6" height="302" fill="transparent" data-tip="janv. 2024|Hors marché (période de chauffe)"/><rect class="hit" x="72.4" y="26" width="13.6" height="302" fill="transparent" data-tip="févr. 2024|Hors marché (période de chauffe)"/><rect class="hit" x="86.1" y="26" width="13.6" height="302" fill="transparent" data-tip="mars 2024|Hors marché (période de chauffe)"/><rect class="hit" x="99.7" y="26" width="13.6" height="302" fill="transparent" data-tip="avr. 2024|Hors marché (période de chauffe)"/><rect class="hit" x="113.3" y="26" width="13.6" height="302" fill="transparent" data-tip="avr. 2024|Hors marché (période de chauffe)"/><rect class="hit" x="126.9" y="26" width="13.6" height="302" fill="transparent" data-tip="mai 2024|Hors marché (période de chauffe)"/><rect class="hit" x="140.6" y="26" width="13.6" height="302" fill="transparent" data-tip="juin 2024|Hors marché (période de chauffe)"/><rect class="hit" x="154.2" y="26" width="13.6" height="302" fill="transparent" data-tip="juin 2024|Titres détenus : 8|Poids par ligne : ≈ 12 %"/><rect class="hit" x="167.8" y="26" width="13.6" height="302" fill="transparent" data-tip="juil. 2024|Titres détenus : 8|Poids par ligne : ≈ 12 %"/><rect class="hit" x="181.4" y="26" width="13.6" height="302" fill="transparent" data-tip="août 2024|Titres détenus : 8|Poids par ligne : ≈ 12 %"/><rect class="hit" x="195.1" y="26" width="13.6" height="302" fill="transparent" data-tip="sept. 2024|Titres détenus : 11|Poids par ligne : ≈ 9 %"/><rect class="hit" x="208.7" y="26" width="13.6" height="302" fill="transparent" data-tip="sept. 2024|Titres détenus : 11|Poids par ligne : ≈ 9 %"/><rect class="hit" x="222.3" y="26" width="13.6" height="302" fill="transparent" data-tip="oct. 2024|Titres détenus : 12|Poids par ligne : ≈ 8 %"/><rect class="hit" x="236" y="26" width="13.6" height="302" fill="transparent" data-tip="nov. 2024|Titres détenus : 11|Poids par ligne : ≈ 9 %"/><rect class="hit" x="249.6" y="26" width="13.6" height="302" fill="transparent" data-tip="déc. 2024|Titres détenus : 11|Poids par ligne : ≈ 9 %"/><rect class="hit" x="263.2" y="26" width="13.6" height="302" fill="transparent" data-tip="déc. 2024|Titres détenus : 9|Poids par ligne : ≈ 11 %"/><rect class="hit" x="276.8" y="26" width="13.6" height="302" fill="transparent" data-tip="janv. 2025|Titres détenus : 9|Poids par ligne : ≈ 11 %"/><rect class="hit" x="290.5" y="26" width="13.6" height="302" fill="transparent" data-tip="févr. 2025|Titres détenus : 9|Poids par ligne : ≈ 11 %"/><rect class="hit" x="304.1" y="26" width="13.6" height="302" fill="transparent" data-tip="mars 2025|Titres détenus : 11|Poids par ligne : ≈ 9 %"/><rect class="hit" x="317.7" y="26" width="13.6" height="302" fill="transparent" data-tip="mars 2025|Titres détenus : 13|Poids par ligne : ≈ 8 %"/><rect class="hit" x="331.3" y="26" width="13.6" height="302" fill="transparent" data-tip="avr. 2025|Titres détenus : 13|Poids par ligne : ≈ 8 %"/><rect class="hit" x="345" y="26" width="13.6" height="302" fill="transparent" data-tip="mai 2025|Titres détenus : 15|Poids par ligne : ≈ 7 %"/><rect class="hit" x="358.6" y="26" width="13.6" height="302" fill="transparent" data-tip="mai 2025|Titres détenus : 15|Poids par ligne : ≈ 7 %"/><rect class="hit" x="372.2" y="26" width="13.6" height="302" fill="transparent" data-tip="juin 2025|Titres détenus : 16|Poids par ligne : ≈ 6 %"/><rect class="hit" x="385.8" y="26" width="13.6" height="302" fill="transparent" data-tip="juil. 2025|Titres détenus : 15|Poids par ligne : ≈ 7 %"/><rect class="hit" x="399.5" y="26" width="13.6" height="302" fill="transparent" data-tip="août 2025|Titres détenus : 15|Poids par ligne : ≈ 7 %"/><rect class="hit" x="413.1" y="26" width="13.6" height="302" fill="transparent" data-tip="août 2025|Titres détenus : 11|Poids par ligne : ≈ 9 %"/><rect class="hit" x="426.7" y="26" width="13.6" height="302" fill="transparent" data-tip="sept. 2025|Titres détenus : 9|Poids par ligne : ≈ 11 %"/><rect class="hit" x="440.3" y="26" width="13.6" height="302" fill="transparent" data-tip="oct. 2025|Titres détenus : 9|Poids par ligne : ≈ 11 %"/><rect class="hit" x="454" y="26" width="13.6" height="302" fill="transparent" data-tip="nov. 2025|Titres détenus : 9|Poids par ligne : ≈ 11 %"/><rect class="hit" x="467.6" y="26" width="13.6" height="302" fill="transparent" data-tip="nov. 2025|Titres détenus : 6|Poids par ligne : ≈ 17 %"/><rect class="hit" x="481.2" y="26" width="13.6" height="302" fill="transparent" data-tip="déc. 2025|Titres détenus : 6|Poids par ligne : ≈ 17 %"/><rect class="hit" x="494.8" y="26" width="13.6" height="302" fill="transparent" data-tip="janv. 2026|Titres détenus : 8|Poids par ligne : ≈ 12 %"/><rect class="hit" x="508.5" y="26" width="13.6" height="302" fill="transparent" data-tip="févr. 2026|Titres détenus : 8|Poids par ligne : ≈ 12 %"/><rect class="hit" x="522.1" y="26" width="13.6" height="302" fill="transparent" data-tip="févr. 2026|Titres détenus : 9|Poids par ligne : ≈ 11 %"/><rect class="hit" x="535.7" y="26" width="13.6" height="302" fill="transparent" data-tip="mars 2026|Titres détenus : 9|Poids par ligne : ≈ 11 %"/><rect class="hit" x="549.3" y="26" width="13.6" height="302" fill="transparent" data-tip="avr. 2026|Titres détenus : 9|Poids par ligne : ≈ 11 %"/><rect class="hit" x="563" y="26" width="13.6" height="302" fill="transparent" data-tip="mai 2026|Titres détenus : 6|Poids par ligne : ≈ 17 %"/><rect class="hit" x="576.6" y="26" width="13.6" height="302" fill="transparent" data-tip="mai 2026|Titres détenus : 9|Poids par ligne : ≈ 11 %"/><rect class="hit" x="590.2" y="26" width="13.6" height="302" fill="transparent" data-tip="juin 2026|Titres détenus : 9|Poids par ligne : ≈ 11 %"/><rect class="hit" x="603.8" y="26" width="13.6" height="302" fill="transparent" data-tip="juil. 2026|Titres détenus : 9|Poids par ligne : ≈ 11 %"/><circle class="hit dot" cx="154.2" cy="207.2" r="3.6" fill="#FFFFFF" stroke="#AF52DE" stroke-width="2" data-tip="juin 2024|Réallocation : 8 titres"/><circle class="hit dot" cx="175.5" cy="207.2" r="3.6" fill="#FFFFFF" stroke="#AF52DE" stroke-width="2" data-tip="juil. 2024|Réallocation : 8 titres"/><circle class="hit dot" cx="196.8" cy="161.9" r="3.6" fill="#FFFFFF" stroke="#AF52DE" stroke-width="2" data-tip="août 2024|Réallocation : 11 titres"/><circle class="hit dot" cx="218.1" cy="146.8" r="3.6" fill="#FFFFFF" stroke="#AF52DE" stroke-width="2" data-tip="oct. 2024|Réallocation : 12 titres"/><circle class="hit dot" cx="239.3" cy="161.9" r="3.6" fill="#FFFFFF" stroke="#AF52DE" stroke-width="2" data-tip="nov. 2024|Réallocation : 11 titres"/><circle class="hit dot" cx="260.6" cy="192.1" r="3.6" fill="#FFFFFF" stroke="#AF52DE" stroke-width="2" data-tip="déc. 2024|Réallocation : 9 titres"/><circle class="hit dot" cx="281.9" cy="192.1" r="3.6" fill="#FFFFFF" stroke="#AF52DE" stroke-width="2" data-tip="janv. 2025|Réallocation : 9 titres"/><circle class="hit dot" cx="303.2" cy="161.9" r="3.6" fill="#FFFFFF" stroke="#AF52DE" stroke-width="2" data-tip="févr. 2025|Réallocation : 11 titres"/><circle class="hit dot" cx="324.5" cy="131.7" r="3.6" fill="#FFFFFF" stroke="#AF52DE" stroke-width="2" data-tip="mars 2025|Réallocation : 13 titres"/><circle class="hit dot" cx="345.8" cy="101.5" r="3.6" fill="#FFFFFF" stroke="#AF52DE" stroke-width="2" data-tip="avr. 2025|Réallocation : 15 titres"/><circle class="hit dot" cx="367.1" cy="86.4" r="3.6" fill="#FFFFFF" stroke="#AF52DE" stroke-width="2" data-tip="juin 2025|Réallocation : 16 titres"/><circle class="hit dot" cx="388.4" cy="101.5" r="3.6" fill="#FFFFFF" stroke="#AF52DE" stroke-width="2" data-tip="juil. 2025|Réallocation : 15 titres"/><circle class="hit dot" cx="409.7" cy="161.9" r="3.6" fill="#FFFFFF" stroke="#AF52DE" stroke-width="2" data-tip="août 2025|Réallocation : 11 titres"/><circle class="hit dot" cx="431" cy="192.1" r="3.6" fill="#FFFFFF" stroke="#AF52DE" stroke-width="2" data-tip="sept. 2025|Réallocation : 9 titres"/><circle class="hit dot" cx="452.2" cy="192.1" r="3.6" fill="#FFFFFF" stroke="#AF52DE" stroke-width="2" data-tip="oct. 2025|Réallocation : 9 titres"/><circle class="hit dot" cx="473.5" cy="237.4" r="3.6" fill="#FFFFFF" stroke="#AF52DE" stroke-width="2" data-tip="nov. 2025|Réallocation : 6 titres"/><circle class="hit dot" cx="494.8" cy="207.2" r="3.6" fill="#FFFFFF" stroke="#AF52DE" stroke-width="2" data-tip="déc. 2025|Réallocation : 8 titres"/><circle class="hit dot" cx="516.1" cy="192.1" r="3.6" fill="#FFFFFF" stroke="#AF52DE" stroke-width="2" data-tip="févr. 2026|Réallocation : 9 titres"/><circle class="hit dot" cx="537.4" cy="192.1" r="3.6" fill="#FFFFFF" stroke="#AF52DE" stroke-width="2" data-tip="mars 2026|Réallocation : 9 titres"/><circle class="hit dot" cx="558.7" cy="237.4" r="3.6" fill="#FFFFFF" stroke="#AF52DE" stroke-width="2" data-tip="avr. 2026|Réallocation : 6 titres"/><circle class="hit dot" cx="580" cy="192.1" r="3.6" fill="#FFFFFF" stroke="#AF52DE" stroke-width="2" data-tip="mai 2026|Réallocation : 9 titres"/><circle class="hit dot" cx="601.3" cy="192.1" r="3.6" fill="#FFFFFF" stroke="#AF52DE" stroke-width="2" data-tip="juin 2026|Réallocation : 9 titres"/><line x1="52" y1="328" x2="620" y2="328" stroke="#8494A0" stroke-width="1.4"/><line x1="106.5" y1="328" x2="106.5" y2="332" stroke="#94A3AE" stroke-width="1.1"/><line x1="161.9" y1="328" x2="161.9" y2="332" stroke="#94A3AE" stroke-width="1.1"/><line x1="218.1" y1="328" x2="218.1" y2="332" stroke="#94A3AE" stroke-width="1.1"/><line x1="328.8" y1="328" x2="328.8" y2="332" stroke="#94A3AE" stroke-width="1.1"/><line x1="384.1" y1="328" x2="384.1" y2="332" stroke="#94A3AE" stroke-width="1.1"/><line x1="440.3" y1="328" x2="440.3" y2="332" stroke="#94A3AE" stroke-width="1.1"/><line x1="551" y1="328" x2="551" y2="332" stroke="#94A3AE" stroke-width="1.1"/><line x1="606.4" y1="328" x2="606.4" y2="332" stroke="#94A3AE" stroke-width="1.1"/><line x1="52" y1="328" x2="52" y2="336" stroke="#5B6B78" stroke-width="1.4"/><text x="52" y="353" text-anchor="middle" font-size="15.6" font-weight="700" font-family="Roboto Mono, ui-monospace, monospace" fill="#5B6B78">2024</text><line x1="274.3" y1="328" x2="274.3" y2="336" stroke="#5B6B78" stroke-width="1.4"/><text x="274.3" y="353" text-anchor="middle" font-size="15.6" font-weight="700" font-family="Roboto Mono, ui-monospace, monospace" fill="#5B6B78">2025</text><line x1="496.5" y1="328" x2="496.5" y2="336" stroke="#5B6B78" stroke-width="1.4"/><text x="496.5" y="353" text-anchor="middle" font-size="15.6" font-weight="700" font-family="Roboto Mono, ui-monospace, monospace" fill="#5B6B78">2026</text></svg>